<svg xmlns="http://www.w3.org/2000/svg" viewBox="0 15.673828125 842.724609375 212.255859375"><path fill="#FFFFFF" d="M0 144.43L0 63.13Q9.96 18.02 80.57 16.99L80.57 16.99Q105.76 18.02 156.30 26.66L156.30 26.66L156.30 71.19Q104.44 59.03 78.96 59.03L78.96 59.03Q58.59 59.03 43.95 71.19L43.95 71.19L43.95 100.49L161.13 100.49L161.13 181.79Q151.17 226.90 80.57 227.93L80.57 227.93Q55.37 226.90 4.83 218.26L4.83 218.26L4.83 173.73Q56.69 185.89 82.18 185.89L82.18 185.89Q102.54 185.89 117.19 173.73L117.19 173.73L117.19 144.43L0 144.43ZM223.39 225L223.39 63.87L164.79 63.87L164.79 19.92L325.93 19.92L325.93 63.87L267.33 63.87L267.33 181.05L296.63 181.05L296.63 225L223.39 225ZM373.97 75.59L373.97 169.34Q373.97 183.98 410.60 183.98L410.60 183.98Q447.22 183.98 447.22 169.34L447.22 169.34L447.22 75.59Q447.22 60.94 410.60 60.94L410.60 60.94Q373.97 60.94 373.97 75.59L373.97 75.59ZM330.03 169.34L330.03 75.59Q330.03 16.99 410.60 16.99L410.60 16.99Q491.16 16.99 491.16 75.59L491.16 75.59L491.16 169.34Q491.16 227.93 410.60 227.93L410.60 227.93Q330.03 227.93 330.03 169.34L330.03 169.34ZM505.81 225L505.81 31.05Q553.86 15.67 571.44 15.67L571.44 15.67L593.41 15.67Q647.61 15.67 666.94 58.15L666.94 58.15L666.94 166.41L630.32 166.41L681.59 225L623.00 225L572.75 166.41L549.76 166.41L549.76 225L505.81 225ZM549.76 63.72L549.76 63.72L549.76 122.46L623.00 122.46L623.00 69.73Q614.50 58.15 587.40 58.15L587.40 58.15Q574.07 58.15 549.76 63.72ZM725.54 144.43L725.54 181.05L842.72 181.05L842.72 225L681.59 225L681.59 58.15Q700.93 15.67 755.13 15.67L755.13 15.67L777.10 15.67Q794.68 15.67 842.72 31.05L842.72 31.05L842.72 75.59Q784.72 58.15 761.13 58.15L761.13 58.15Q734.03 58.15 725.54 69.73L725.54 69.73L725.54 100.49L842.72 100.49L842.72 144.43L725.54 144.43Z"/></svg>